<svg width="67" height="67" viewBox="0 0 67 67" fill="none" xmlns="http://www.w3.org/2000/svg">
<g clip-path="url(#clip0_57_30)">
<path d="M49.6222 0C40.0459 0 32.2438 7.80282 32.2438 17.3785C32.2438 26.9528 40.0466 34.7562 49.6222 34.7562C59.1965 34.7562 67 26.9534 67 17.3785C67 7.80349 59.1972 0 49.6222 0ZM49.6222 3.86188C51.3983 3.85808 53.1576 4.20511 54.7992 4.88305C56.4408 5.56098 57.9323 6.55647 59.1881 7.81236C60.444 9.06826 61.4394 10.5598 62.1172 12.2014C62.7951 13.8431 63.142 15.6024 63.1381 17.3785C63.1419 19.1545 62.7948 20.9137 62.1168 22.5552C61.4388 24.1967 60.4433 25.6882 59.1874 26.9439C57.9315 28.1997 56.44 29.195 54.7984 29.8729C53.1568 30.5507 51.3976 30.8976 49.6216 30.8937C47.8457 30.8974 46.0865 30.5504 44.4451 29.8725C42.8037 29.1946 41.3123 28.1992 40.0566 26.9434C38.8008 25.6877 37.8054 24.1963 37.1276 22.5549C36.4497 20.9135 36.1026 19.1543 36.1063 17.3785C36.1024 15.6025 36.4494 13.8432 37.1272 12.2016C37.805 10.56 38.8003 9.06849 40.0561 7.8126C41.3119 6.55672 42.8033 5.56121 44.4448 4.88324C46.0863 4.20526 47.8456 3.85817 49.6216 3.86188M44.5121 11.3123C44.1222 11.3122 43.7361 11.3889 43.3758 11.5381C43.0155 11.6874 42.6882 11.9061 42.4125 12.1819C42.1368 12.4576 41.9181 12.785 41.769 13.1453C41.6199 13.5056 41.5432 13.8918 41.5434 14.2817C41.5432 14.6717 41.6199 15.0579 41.7691 15.4183C41.9182 15.7786 42.1369 16.106 42.4127 16.3818C42.6885 16.6576 43.0159 16.8763 43.3763 17.0255C43.7366 17.1746 44.1228 17.2513 44.5128 17.2512C44.9028 17.2512 45.2889 17.1745 45.6492 17.0253C46.0094 16.8761 46.3368 16.6574 46.6125 16.3816C46.8882 16.1058 47.1068 15.7784 47.256 15.4181C47.4051 15.0578 47.4818 14.6717 47.4816 14.2817C47.4817 13.8918 47.4049 13.5057 47.2558 13.1455C47.1066 12.7853 46.8879 12.458 46.6122 12.1823C46.3366 11.9066 46.0092 11.6879 45.649 11.5388C45.2888 11.3896 44.9027 11.3129 44.5128 11.3129M54.7303 11.3129C54.3404 11.3129 53.9542 11.3896 53.594 11.5388C53.2337 11.688 52.9063 11.9068 52.6306 12.1825C52.3549 12.4583 52.1363 12.7857 51.9872 13.146C51.838 13.5063 51.7614 13.8924 51.7615 14.2824C51.7614 14.6724 51.8381 15.0586 51.9872 15.419C52.1364 15.7793 52.3551 16.1067 52.6309 16.3825C52.9067 16.6583 53.2341 16.877 53.5944 17.0262C53.9548 17.1753 54.341 17.252 54.731 17.2518C55.1209 17.2519 55.5071 17.1752 55.8673 17.026C56.2276 16.8768 56.555 16.658 56.8307 16.3823C57.1064 16.1065 57.325 15.7791 57.4741 15.4188C57.6233 15.0585 57.6999 14.6723 57.6998 14.2824C57.6998 13.8925 57.6231 13.5064 57.4739 13.1462C57.3248 12.786 57.1061 12.4586 56.8304 12.183C56.5547 11.9073 56.2274 11.6886 55.8672 11.5394C55.507 11.3903 55.1209 11.3135 54.731 11.3136M44.0887 21.8474C43.7503 21.8538 43.4223 21.9654 43.1502 22.1667C42.8782 22.368 42.6755 22.6489 42.5703 22.9706C42.4651 23.2923 42.4627 23.6388 42.5634 23.9619C42.664 24.285 42.8627 24.5688 43.1319 24.7739C44.8063 26.0891 47.0883 26.729 49.5137 26.7705C51.9391 26.8121 54.266 26.2446 56.0294 25.0144C56.2069 24.8927 56.3586 24.7371 56.4756 24.5565C56.5926 24.3759 56.6727 24.1739 56.7113 23.9622C56.7499 23.7504 56.7461 23.5332 56.7003 23.3229C56.6544 23.1126 56.5674 22.9135 56.4443 22.737C56.3211 22.5606 56.1642 22.4102 55.9826 22.2947C55.801 22.1792 55.5984 22.1008 55.3864 22.064C55.1743 22.0272 54.9571 22.0327 54.7472 22.0803C54.5373 22.1278 54.3389 22.2165 54.1635 22.3411C53.1746 23.0312 51.4111 23.5425 49.5686 23.511C47.7261 23.4795 46.0317 22.9053 45.1466 22.2098C44.8476 21.968 44.4726 21.8398 44.088 21.848" fill="#4A1158"/>
<path d="M33.4645 0C14.9772 0.0201 0 15.012 0 33.5C0 52.0014 14.9986 67 33.5 67C52.0014 67 67 52.0014 67 33.5C66.987 31.7274 66.8333 29.9586 66.5404 28.2104C64.3971 31.2991 62.1063 33.5214 59.1262 35.175H63.6018C63.3935 39.0349 62.4416 42.8182 60.7985 46.3171H51.6503C52.2962 43.4616 52.7176 40.4124 52.8965 37.2359C51.7841 37.3917 50.6606 37.4541 49.5378 37.4222C49.3368 40.5611 48.8778 43.5533 48.2032 46.3178H35.175V35.175H40.5685C36.8353 33.2588 33.7224 30.3972 31.825 26.8134V31.825H18.0009C18.1429 27.8486 18.6997 24.0838 19.5841 20.6829H29.7065C29.5183 19.5766 29.4351 18.4549 29.4579 17.3329H20.6025C21.2645 15.4408 22.0296 13.6948 22.8859 12.1404C25.3863 7.5978 28.5226 4.75767 31.825 3.93826V8.35222C33.4759 5.19853 35.9046 2.43813 38.8366 0.46565C37.073 0.16823 35.2884 0.012516 33.5 0L33.4645 0ZM24.1066 4.84544C22.5495 6.42128 21.1519 8.34284 19.9506 10.5237C18.825 12.5672 17.8568 14.8566 17.0616 17.3322H8.0467C11.7552 11.4992 17.41 7.03433 24.1066 4.84544ZM6.20152 20.6829H16.1229C15.2887 24.1414 14.7775 27.8921 14.6469 31.8257H3.39824C3.6065 27.9658 4.55836 24.1818 6.20152 20.6829ZM3.39824 35.175H14.6288C14.7152 39.0985 15.1782 42.8492 15.9648 46.3171H6.20152C4.55836 42.8182 3.6065 39.0349 3.39824 35.175ZM17.9788 35.175H31.825V46.3171H19.4166C18.5825 42.9001 18.0726 39.1381 17.9788 35.175ZM8.0467 49.6671H16.8478C17.68 52.404 18.7238 54.9199 19.9506 57.1477C20.9141 58.8964 22.0062 60.4769 23.2028 61.849C16.9001 59.5643 11.5877 55.2361 8.0467 49.6671ZM20.3707 49.6678H31.825V63.6024C31.6186 63.591 31.415 63.5703 31.2099 63.5555C28.1346 62.5505 25.2309 59.7901 22.8859 55.5323C21.9291 53.7943 21.0822 51.8225 20.3707 49.6684M35.175 49.6684H47.2491C46.5389 51.8232 45.6913 53.795 44.7346 55.533C42.4378 59.7037 39.605 62.4393 36.6001 63.4946C36.126 63.5418 35.6508 63.5779 35.175 63.6031V49.6684ZM50.7693 49.6684H58.9533C55.5655 54.999 50.5911 59.1329 44.7305 61.4879C45.8052 60.2015 46.7908 58.7449 47.6692 57.149C48.8959 54.9212 49.9391 52.4047 50.7693 49.6684Z" fill="#4A1158"/>
</g>
<defs>
<clipPath id="clip0_57_30">
<rect width="67" height="67" fill="white"/>
</clipPath>
</defs>
</svg>
